<svg width="50" height="50" viewBox="0 0 50 50" fill="none" xmlns="http://www.w3.org/2000/svg">
<circle cx="25" cy="25" r="25" fill="#842231"/>
<g clip-path="url(#clip0)">
<path d="M23.0328 32.925L15.5647 25.4578L35.5417 25.4578C35.7948 25.4578 36 25.2526 36 24.9995C36 24.7464 35.7948 24.5411 35.5417 24.5411L15.5647 24.5411L23.0328 17.074C23.2087 16.8919 23.2036 16.6018 23.0216 16.4259C22.844 16.2544 22.5624 16.2544 22.3848 16.4259L14.1348 24.6759C13.9556 24.8546 13.9552 25.1448 14.134 25.3241C14.1342 25.3243 14.1345 25.3246 14.1348 25.3249L22.3848 33.5749C22.5668 33.7508 22.857 33.7457 23.0329 33.5636C23.2045 33.386 23.2045 33.1044 23.0329 32.9268L23.0328 32.925Z" fill="#FFC107"/>
<path d="M13.9997 24.9996C13.9995 24.8779 14.0477 24.7612 14.1336 24.6751L22.3836 16.4251C22.5657 16.2492 22.8559 16.2543 23.0317 16.4363C23.2033 16.6139 23.2033 16.8955 23.0317 17.0731L15.1062 24.9995L23.0317 32.925C23.2076 33.1071 23.2025 33.3972 23.0205 33.5731C22.8428 33.7447 22.5613 33.7447 22.3836 33.5731L14.1336 25.3231C14.0479 25.2373 13.9998 25.1209 13.9997 24.9996Z" fill="white"/>
<path d="M14 24.9995C14 24.7464 14.2052 24.5411 14.4583 24.5411L35.5417 24.5411C35.7948 24.5412 36 24.7464 36 24.9995C36 25.2526 35.7948 25.4579 35.5417 25.4579L14.4583 25.4579C14.2052 25.4579 14 25.2526 14 24.9995Z" fill="white"/>
</g>
<defs>
<clipPath id="clip0">
<rect width="22" height="22" fill="white" transform="translate(36 14) rotate(90)"/>
</clipPath>
</defs>
</svg>
