<svg width="18" height="18" viewBox="0 0 18 18" fill="none" xmlns="http://www.w3.org/2000/svg">
<path d="M16.148 17.3086L16.1664 17.2792L17.9995 13.5584L12.6449 9.54243L10.1812 11.3901C9.25206 11.3348 8.37545 10.9408 7.7173 10.2826C7.05916 9.62448 6.66515 8.74786 6.60987 7.81874L8.45753 5.35508L4.44163 0.000487689L0.751945 1.81832L0.720793 1.83362L0.691402 1.85205C0.535095 1.94906 0.406216 2.08446 0.317036 2.24537C0.227856 2.40627 0.181343 2.58732 0.181923 2.77129L0.181923 3.73138C0.181923 5.58128 0.546285 7.41306 1.25421 9.12214C1.96214 10.8312 2.99976 12.3841 4.30784 13.6922C5.61591 15.0003 7.16882 16.0379 8.8779 16.7458C10.587 17.4537 12.4188 17.8181 14.2687 17.8181L15.2288 17.8181C15.4128 17.8187 15.5938 17.7722 15.7547 17.683C15.9156 17.5938 16.051 17.465 16.148 17.3086ZM14.2687 16.4431C7.25939 16.4431 1.55692 10.7406 1.55692 3.73138L1.55692 2.9545L4.02603 1.73823L6.73887 5.35534L5.22856 7.36916L5.22856 7.59831C5.23009 8.96992 5.77564 10.2849 6.74552 11.2548C7.71539 12.2247 9.03038 12.7702 10.402 12.7717L10.6311 12.7717L12.6449 11.2614L16.2618 13.974L15.0453 16.4431L14.2687 16.4431Z" fill="#333333"/>
</svg>
