<svg width="18" height="18" viewBox="0 0 18 18" fill="none" xmlns="http://www.w3.org/2000/svg">
<path fill-rule="evenodd" clip-rule="evenodd" d="M15.3773 2.61616C14.5471 1.78441 13.5592 1.12489 12.471 0.675821C11.3829 0.226749 10.2159 -0.00295121 9.03792 2.86246e-05C4.09816 2.86246e-05 0.0768718 4.00124 0.0748751 8.91953C0.0748751 10.4914 0.487187 12.0255 1.27088 13.3788L0 18L4.75107 16.759C6.06527 17.471 7.53762 17.8443 9.03393 17.845H9.03792C13.9767 17.845 17.998 13.8438 18 8.9255C18.0034 7.75353 17.7733 6.59253 17.3232 5.50957C16.873 4.42662 16.2117 3.44321 15.3773 2.61616ZM9.03792 16.3397H9.03492C7.70067 16.3398 6.39097 15.9826 5.24325 15.3054L4.9717 15.1444L2.15241 15.8807L2.90415 13.1453L2.72745 12.8651C1.98148 11.6831 1.58659 10.3153 1.58835 8.91953C1.59035 4.83188 4.93177 1.50632 9.04091 1.50632C10.0195 1.50415 10.9889 1.69518 11.8928 2.06835C12.7968 2.44151 13.6174 2.9894 14.3071 3.68031C15.0006 4.36792 15.5502 5.1855 15.9243 6.0858C16.2984 6.9861 16.4895 7.95126 16.4865 8.9255C16.4845 13.0131 13.1431 16.3397 9.03792 16.3397ZM13.1241 10.7865C12.8995 10.6742 11.7993 10.1357 11.5937 10.0612C11.389 9.98666 11.2402 9.94989 11.0905 10.1725C10.9407 10.395 10.5115 10.8968 10.3807 11.0458C10.2499 11.1949 10.1191 11.2128 9.89549 11.1015C9.67186 10.9902 8.95006 10.7547 8.09449 9.9956C7.4286 9.40441 6.97935 8.67511 6.84857 8.45155C6.71779 8.22799 6.83459 8.10777 6.94741 7.99648C7.04824 7.89712 7.17103 7.73616 7.28285 7.606C7.39466 7.47584 7.4316 7.38344 7.50647 7.2344C7.58135 7.08536 7.54441 6.95519 7.48751 6.84391C7.4316 6.73164 6.98335 5.63471 6.79666 5.18858C6.61596 4.75637 6.43127 4.814 6.2935 4.80804C6.15081 4.80223 6.00802 4.79958 5.86521 4.80009C5.75166 4.80297 5.63993 4.82917 5.53702 4.87704C5.43412 4.92491 5.34226 4.99343 5.26721 5.07829C5.06155 5.30185 4.48352 5.84038 4.48352 6.93731C4.48352 8.03424 5.28618 9.09441 5.39799 9.24345C5.50981 9.39249 6.97736 11.643 9.22361 12.6088C9.75872 12.8383 10.176 12.9754 10.5005 13.0787C11.0366 13.2486 11.5248 13.2238 11.9111 13.1672C12.3414 13.1036 13.2359 12.6286 13.4226 12.108C13.6093 11.5873 13.6093 11.1412 13.5534 11.0478C13.4975 10.9544 13.3467 10.8978 13.1241 10.7865Z" fill="#333333"/>
</svg>
